<?xml version="1.0" encoding="utf-8"?>
<svg width="1178px" height="163px" viewBox="0 0 1178 163" version="1.1" xmlns:xlink="http://www.w3.org/1999/xlink" xmlns="http://www.w3.org/2000/svg">
  <desc>Created with Lunacy</desc>
  <path d="M0 24.9098L0 161.422L1175.5 162L1176.27 24.9098C1176.27 24.9098 1101.06 56.8623 1046.14 51.0157C991.209 45.169 1014.45 -9.76211 956.563 1.52325C898.679 12.8086 868.681 87.5911 814.6 96.1571C760.518 104.723 790.939 44.7611 740.238 35.7872C689.537 26.8133 692.917 66.2441 611.795 60.2615C530.673 54.2789 465.606 7.23391 415.75 11.8568C365.894 16.4797 444.903 76.9856 412.37 78.7532C379.837 80.5208 357.866 18.6552 285.617 18.9272C213.368 19.1991 194.777 78.3453 123.373 79.8409C51.9688 81.3366 0 24.9098 0 24.9098Z" transform="translate(0.5 0.5)" id="New-shape" fill="#222327" fill-opacity="0.721568644" stroke="none" />
</svg>