<?xml version="1.0" encoding="utf-8"?>
<svg width="139px" height="139px" viewBox="0 0 139 139" version="1.1" xmlns:xlink="http://www.w3.org/1999/xlink" xmlns="http://www.w3.org/2000/svg">
  <desc>Created with Lunacy</desc>
  <g id="icons8-trainers" transform="matrix(0.7071068 0.7071068 -0.7071068 0.7071068 67.24609 0)">
    <path d="M18.6996 0L0 0C0 0 1.33568 9.08264 8.54837 12.8225C15.7611 16.5625 18.6996 0 18.6996 0L18.6996 0Z" transform="translate(18.43262 20.83667)" id="Shape" fill="#3D4046" stroke="none" />
    <path d="M17.8981 79.8738C17.8981 79.8738 13.624 80.141 8.54837 70.7912C3.47277 61.4414 0 53.9616 0 53.9616C0 53.9616 -1.06855 47.016 1.33568 44.6118C5.07559 40.8719 12.5554 52.0916 21.6381 42.7418C21.6381 42.7418 29.1179 35.262 27.2479 26.1794C26.4465 22.4395 25.378 20.5695 29.1179 16.8296C32.8578 13.0897 53.1602 14.9596 68.1198 7.47982C68.1198 7.47982 77.4696 1.86996 79.3396 0C81.2095 -1.86996 88.6893 -9.34978 97.772 0C105.519 7.74696 92.1621 24.0423 86.5522 29.6522C80.9424 35.262 47.5503 68.6541 47.5503 68.6541C47.5503 68.6541 28.8507 83.3466 17.8981 79.8738L17.8981 79.8738Z" transform="translate(0 4.007202)" id="Shape" fill="#3D4046" stroke="none" />
    <path d="M0 70.2569C0.267138 70.2569 0.80141 70.2569 1.06855 70.2569L25.378 49.4203L21.9052 12.2883L42.2076 6.67841L41.139 0C30.4536 3.47277 18.6996 3.73991 12.5554 5.07559C13.8911 29.1179 2.13709 63.3114 0 70.2569L0 70.2569Z" transform="translate(20.03613 13.89136)" id="Shape" fill="#FFFFFF" stroke="none" />
    <path d="M83.6137 0L83.6137 3.73991C83.6137 3.73991 81.7438 24.0423 68.6541 37.132C51.8245 53.9616 31.7893 73.9968 29.6522 76.1339C22.1723 83.6137 11.2197 91.0935 11.2197 91.0935C10.1512 92.1621 8.54837 92.1621 7.47982 91.0935L0 79.8738C5.60987 78.0038 11.2197 72.394 24.0423 59.5714C24.0423 59.5714 57.4344 33.6592 63.0442 28.0493C63.0442 28.0493 79.6067 11.4869 79.6067 0.26712L83.6137 0.26712L83.6137 0Z" transform="translate(17.63086 4.006958)" id="Shape" fill="#FFFFFF" stroke="none" />
    <path d="M64.1123 28.5836C61.9753 30.7207 57.7011 30.9878 56.6325 28.5836C55.8311 26.4465 55.564 20.0352 55.564 14.9596C58.7696 14.1582 61.9752 13.0897 64.9137 11.4869C64.9137 11.4869 74.2635 5.87701 76.1335 4.00705C76.6678 3.47278 77.4692 2.67137 78.5377 1.86996C79.072 1.60282 79.6063 1.06855 80.4077 0.80141C80.9419 0.534273 81.7433 0.267136 82.5448 0C86.2847 8.54837 64.1123 28.5836 64.1123 28.5836ZM44.8809 19.2344C44.8809 20.8372 45.9494 21.9058 47.5522 21.9058C49.155 21.9058 50.2236 20.5701 50.2236 19.2344L50.2236 15.4945C50.2236 13.8917 49.155 12.8231 47.5522 12.8231C45.9494 12.8231 44.8809 13.8917 44.8809 15.4945L44.8809 19.2344ZM36.8647 23.5079C35.2619 23.5079 34.1934 22.4394 34.1934 20.8366L34.1934 17.0967C34.1934 15.4938 35.2619 14.4253 36.8647 14.4253C38.4675 14.4253 39.5361 15.4938 39.5361 17.0967L39.5361 20.8366C39.5361 22.4394 38.4675 23.5079 36.8647 23.5079ZM12.9595 61.4748C16.7021 62.7156 20.4526 63.9589 23.2409 63.5787C21.1038 71.8599 18.9667 78.8055 17.3639 82.5454C16.5625 83.0797 15.4939 83.614 14.6925 83.8811C14.6925 83.8811 10.4183 84.1482 5.34273 74.7984C3.20564 70.5243 1.33568 67.0515 0 64.113C0 62.5102 0.267136 60.1059 1.86996 59.5717C4.67784 58.7293 8.81385 60.1005 12.9595 61.4748Z" transform="translate(2.938965 0)" id="Shape" fill="#5D6472" fill-rule="evenodd" stroke="none" />
    <path d="M24.0423 1.01904e-05C25.1108 1.06856 25.1108 2.67138 24.0423 3.73992L3.73991 24.0423C2.67137 25.1108 1.06855 25.1108 0 24.0423C-1.06855 22.9737 -1.06855 21.3709 0 20.3024L20.3024 0C21.3709 -0.801402 23.2409 -0.801402 24.0423 1.01904e-05L24.0423 1.01904e-05Z" transform="translate(36.33057 55.83154)" id="Shape" fill="#3D4046" stroke="none" />
  </g>
</svg>